<?xml version="1.0" encoding="UTF-8" standalone="no"?>
<svg
   xmlns:dc="http://purl.org/dc/elements/1.1/"
   xmlns:cc="http://creativecommons.org/ns#"
   xmlns:rdf="http://www.w3.org/1999/02/22-rdf-syntax-ns#"
   xmlns:svg="http://www.w3.org/2000/svg"
   xmlns="http://www.w3.org/2000/svg"
   xmlns:sodipodi="http://sodipodi.sourceforge.net/DTD/sodipodi-0.dtd"
   xmlns:inkscape="http://www.inkscape.org/namespaces/inkscape"
   width="210mm"
   height="297mm"
   viewBox="0 0 210 297"
   version="1.1"
   id="svg8"
   inkscape:version="1.0.2 (e86c870879, 2021-01-15)"
   sodipodi:docname="logo-light.svg"
   inkscape:export-filename="C:\Users\sbentley\Desktop\logo-dark.png"
   inkscape:export-xdpi="96"
   inkscape:export-ydpi="96">
  <defs
     id="defs2">
    <rect
       x="115.66071"
       y="118.02307"
       width="36.002232"
       height="31.75"
       id="rect20" />
  </defs>
  <sodipodi:namedview
     id="base"
     pagecolor="#ffffff"
     bordercolor="#666666"
     borderopacity="1.0"
     inkscape:pageopacity="0.0"
     inkscape:pageshadow="2"
     inkscape:zoom="1.4"
     inkscape:cx="293.04345"
     inkscape:cy="438.94416"
     inkscape:document-units="mm"
     inkscape:current-layer="layer1"
     inkscape:document-rotation="0"
     showgrid="false"
     showguides="true"
     inkscape:window-width="1836"
     inkscape:window-height="1057"
     inkscape:window-x="76"
     inkscape:window-y="-8"
     inkscape:window-maximized="1" />
  <metadata
     id="metadata5">
    <rdf:RDF>
      <cc:Work
         rdf:about="">
        <dc:format>image/svg+xml</dc:format>
        <dc:type
           rdf:resource="http://purl.org/dc/dcmitype/StillImage" />
        <dc:title></dc:title>
      </cc:Work>
    </rdf:RDF>
  </metadata>
  <g
     inkscape:label="Layer 1"
     inkscape:groupmode="layer"
     id="layer1">
    <text
       xml:space="preserve"
       style="font-style:normal;font-weight:normal;font-size:10.5833px;line-height:1.25;font-family:sans-serif;fill:#000000;fill-opacity:1;stroke:none;stroke-width:0.264583"
       x="71.815475"
       y="137.58333"
       id="text12"><tspan
         sodipodi:role="line"
         id="tspan10"
         x="71.815475"
         y="137.58333"
         style="font-style:normal;font-variant:normal;font-weight:normal;font-stretch:normal;font-family:Audiowide;-inkscape-font-specification:Audiowide;fill:#ff6600;stroke-width:0.264583"><tspan
           style="fill:#fa5400;fill-opacity:1"
           id="tspan895">Bentley</tspan><tspan
           style="fill:#ffffff;fill-opacity:1"
           id="tspan35">Sec</tspan></tspan></text>
    <text
       xml:space="preserve"
       style="font-style:normal;font-weight:normal;font-size:10.5833px;line-height:1.25;font-family:sans-serif;fill:#000000;fill-opacity:1;stroke:none;stroke-width:0.264583"
       x="122.27529"
       y="135.50447"
       id="text16"><tspan
         sodipodi:role="line"
         id="tspan14"
         x="122.27529"
         y="135.50447"
         style="fill:#000000;stroke-width:0.264583" /></text>
    <text
       xml:space="preserve"
       id="text18"
       style="font-style:normal;font-weight:normal;font-size:10.5833px;line-height:1.25;font-family:sans-serif;white-space:pre;shape-inside:url(#rect20);fill:#000000;fill-opacity:1;stroke:none;" />
    <rect
       style="fill:#fa5400;fill-opacity:1;stroke-width:0.24552"
       id="rect893"
       width="10.216817"
       height="4.7065196"
       x="140.50116"
       y="132.00246" />
    <rect
       style="fill:#fa5400;fill-opacity:1;stroke-width:0.347679"
       id="rect897"
       width="4.6595802"
       height="1.1527238"
       x="140.50116"
       y="136.47864" />
    <path
       style="fill:none;stroke:#fa5400;stroke-width:0.264583px;stroke-linecap:butt;stroke-linejoin:miter;stroke-opacity:1"
       d="m 150.40662,132.17086 -2.53975,-0.77448 -0.0216,-0.36546 -4.72244,-1.33838"
       id="path899"
       sodipodi:nodetypes="cccc" />
    <path
       style="fill:none;stroke:#fa5400;stroke-width:0.264583px;stroke-linecap:butt;stroke-linejoin:miter;stroke-opacity:1"
       d="m 147.86687,131.39638 0.04,0.67087"
       id="path901"
       sodipodi:nodetypes="cc" />
    <path
       style="fill:#fa5400;fill-opacity:1;stroke:#fa5400;stroke-width:0.0151279;stroke-opacity:1"
       d="m 147.96898,131.91174 c -0.005,-0.0789 -0.0134,-0.20201 -0.0183,-0.27356 -0.005,-0.0735 -0.004,-0.1266 0.004,-0.12205 0.007,0.005 0.37822,0.12485 0.82458,0.26761 0.44639,0.14274 0.81437,0.26222 0.81775,0.2655 0.004,0.003 -0.35947,0.006 -0.80634,0.006 h -0.81249 z"
       id="path910" />
    <rect
       style="fill:#fa5400;fill-opacity:1;stroke:#fa5400;stroke-width:0.264583;stroke-opacity:1"
       id="rect912"
       width="3.7417734"
       height="5.7462945"
       x="66.817383"
       y="130.82843"
       ry="0.35079125" />
    <path
       style="fill:none;stroke:#fa5400;stroke-width:0.264583px;stroke-linecap:butt;stroke-linejoin:miter;stroke-opacity:1"
       d="m 69.824166,130.86184 -3.023488,-1.1359 0.0167,1.10249"
       id="path914"
       sodipodi:nodetypes="ccc" />
    <path
       style="fill:none;stroke:#fa5400;stroke-width:0.264583px;stroke-linecap:butt;stroke-linejoin:miter;stroke-opacity:1"
       d="m 69.857574,136.54131 -3.056896,1.28624 0.0167,-1.25283"
       id="path916"
       sodipodi:nodetypes="ccc" />
    <path
       style="fill:#fa5400;fill-opacity:1;stroke:#fa5400;stroke-width:0.0219217;stroke-opacity:1"
       d="m 66.835997,130.34578 c -0.0087,-0.26652 -0.01076,-0.48941 -0.0048,-0.49532 0.0093,-0.009 2.595886,0.94993 2.620629,0.97181 0.005,0.004 -0.577943,0.008 -1.295482,0.008 h -1.304613 z"
       id="path918" />
    <path
       style="fill:#fa5400;fill-opacity:1;stroke:#fa5400;stroke-width:0.02118;stroke-opacity:1"
       d="m 66.767751,137.22294 c 0.008,-0.31633 0.01653,-0.5777 0.01893,-0.5808 0.0024,-0.004 0.578134,-0.004 1.27939,0 l 1.275003,0.006 -1.278006,0.57515 c -0.702903,0.31634 -1.285184,0.57516 -1.293957,0.57516 -0.0088,0 -0.0095,-0.25882 -0.0014,-0.57516 z"
       id="path920" />
    <rect
       style="fill:#fa5400;fill-opacity:1;stroke:#fa5400;stroke-width:0.264583;stroke-opacity:1"
       id="rect922"
       width="1.7539562"
       height="0.58465207"
       x="66.817375"
       y="130.82843"
       ry="0.29232603"
       rx="0" />
    <rect
       style="fill:#fa5400;fill-opacity:1;stroke:#fa5400;stroke-width:0.264583;stroke-opacity:1"
       id="rect926"
       width="1.2862346"
       height="0.83521724"
       x="66.817375"
       y="135.7395"
       ry="0.2923249"
       rx="0" />
    <rect
       style="fill:#ff742e;fill-opacity:1;stroke:#ff742e;stroke-width:0.264583;stroke-opacity:1"
       id="rect928"
       width="0.31738281"
       height="9.571578"
       x="65.380806"
       y="129.00766"
       ry="0.14198694"
       inkscape:export-xdpi="96"
       inkscape:export-ydpi="96" />
    <rect
       style="fill:#fc9460;fill-opacity:1;stroke:#fc9460;stroke-width:0.264583;stroke-opacity:1"
       id="rect930"
       width="0.35079321"
       height="8.7864799"
       x="63.8106"
       y="129.30833"
       ry="0.14198706" />
    <rect
       style="fill:#ffb996;fill-opacity:1;stroke:#ffb996;stroke-width:0.264583;stroke-opacity:1"
       id="rect932"
       width="0.38419995"
       height="7.8176336"
       x="62.490955"
       y="129.77606"
       ry="0.14198706" />
    <rect
       style="fill:#ffe2d4;fill-opacity:1;stroke:#ffe2d4;stroke-width:0.264583;stroke-opacity:1"
       id="rect936"
       width="0.40090454"
       height="6.8487773"
       x="61.104496"
       y="130.37741"
       ry="0.15869127" />
    <rect
       style="fill:#ffffff;fill-opacity:1;stroke:#ffffff;stroke-width:0.264583;stroke-opacity:1"
       id="rect940"
       width="1.4365736"
       height="5.3453903"
       x="58.651821"
       y="131.33598"
       ry="0.14198706"
       rx="0.14174107" />
    <path
       style="color:#000000;font-style:normal;font-variant:normal;font-weight:normal;font-stretch:normal;font-size:medium;line-height:normal;font-family:sans-serif;font-variant-ligatures:normal;font-variant-position:normal;font-variant-caps:normal;font-variant-numeric:normal;font-variant-alternates:normal;font-variant-east-asian:normal;font-feature-settings:normal;font-variation-settings:normal;text-indent:0;text-align:start;text-decoration:none;text-decoration-line:none;text-decoration-style:solid;text-decoration-color:#000000;letter-spacing:normal;word-spacing:normal;text-transform:none;writing-mode:lr-tb;direction:ltr;text-orientation:mixed;dominant-baseline:auto;baseline-shift:baseline;text-anchor:start;white-space:normal;shape-padding:0;shape-margin:0;inline-size:0;clip-rule:nonzero;display:inline;overflow:visible;visibility:visible;opacity:1;isolation:auto;mix-blend-mode:normal;color-interpolation:sRGB;color-interpolation-filters:linearRGB;solid-color:#000000;solid-opacity:1;vector-effect:none;fill:#ffffff;fill-opacity:1;fill-rule:nonzero;stroke:none;stroke-width:19.8;stroke-linecap:butt;stroke-linejoin:miter;stroke-miterlimit:4;stroke-dasharray:none;stroke-dashoffset:0;stroke-opacity:1;color-rendering:auto;image-rendering:auto;shape-rendering:auto;text-rendering:auto;enable-background:accumulate;stop-color:#000000;stop-opacity:1"
       d="m 58.339844,119.4707 v 0 c 0,0 5.857916,0.59699 11.378901,1.29688 2.760493,0.34994 5.433656,0.86417 7.206845,1.46986 0.886152,0.3027 1.375758,0.51551 1.721076,0.80822 0.172659,0.14636 0.149444,0.31809 0.163225,0.44365 0.01378,0.12555 -0.351415,0.29625 -0.545759,0.41787 -0.459408,0.28749 -0.764228,0.28819 -1.952009,0.67439 -1.187782,0.38621 -2.444552,0.62018 -4.148452,1.02451 -3.407801,0.80866 -7.605013,1.58748 -11.061091,2.44247 -1.728039,0.42749 -3.489597,0.79237 -4.731829,1.22769 -1.242233,0.43531 -2.413695,1.14339 -2.860579,1.61732 -0.223442,0.23696 -0.358698,0.88873 -0.359228,1.1695 -3.59e-4,0.19025 0.242323,1.03429 0.541666,1.37816 0.498722,0.57289 2.757427,2.24075 5.010324,2.6689 l 0.417783,-4.27444 c -2.469183,0.2567 -2.812313,0.25276 -3.637598,0.15379 -0.359525,-0.0431 -0.390785,-0.26749 -0.332469,-0.42987 0.09112,-0.25373 0.150566,-0.21057 0.350053,-0.37957 0.4699,-0.28371 0.412342,-0.26328 1.569499,-0.80641 1.178067,-0.55295 2.937902,-0.86315 4.661841,-1.28963 3.447878,-0.85296 7.440096,-1.77852 10.854284,-2.5887 1.707093,-0.40508 3.113142,-0.84616 4.313778,-1.23655 1.200636,-0.39038 1.850538,-0.87423 2.242466,-1.28804 0.191237,-0.20191 0.28561,-0.42099 0.261719,-0.63867 -0.02389,-0.21767 -0.158386,-0.41196 -0.361328,-0.58398 -0.405884,-0.34405 -1.106384,-0.63447 -2.019531,-0.90625 -1.826296,-0.54356 -4.504565,-0.98518 -7.271485,-1.33594 -5.533841,-0.70152 -11.412109,-1.03516 -11.412109,-1.03516 z"
       id="path944"
       sodipodi:nodetypes="ccssssssssssssccsscssssssssscc" />
  </g>
</svg>
